<svg width="450" height="56" viewBox="0 0 450 56" fill="none" xmlns="http://www.w3.org/2000/svg">
<path d="M229.298 55.0353C228.998 55.0353 228.827 55.0353 228.667 55.0353C221.373 55.0353 214.069 55.0453 206.774 55.0353C202.271 55.0253 198.599 52.0435 197.679 47.6509C197.549 47.0305 197.499 46.4101 197.499 45.7697C197.499 36.8244 197.509 27.889 197.489 18.9436C197.489 18.4834 197.579 18.3333 198.069 18.3333C216.03 18.3433 233.991 18.3433 251.951 18.3433C252.292 18.3433 252.542 18.3133 252.542 18.8236C252.522 23.0261 252.532 27.2286 252.532 31.4311C252.532 31.5012 252.522 31.5812 252.512 31.7713C249.04 27.7589 244.737 25.6276 239.494 25.6977C234.231 25.7677 229.928 27.959 226.666 32.0815C221.363 38.7855 221.993 48.9316 229.298 55.0353ZM208.485 29.3499C209.476 29.3499 210.316 28.5294 210.326 27.5388C210.336 26.5482 209.516 25.7077 208.535 25.6877C207.525 25.6677 206.664 26.5082 206.664 27.5288C206.664 28.5194 207.495 29.3499 208.485 29.3499ZM217.671 27.4687C217.651 28.4593 218.451 29.3199 219.442 29.3499C220.452 29.3799 221.323 28.5494 221.333 27.5388C221.343 26.5482 220.522 25.7077 219.532 25.6877C218.541 25.6677 217.691 26.4782 217.671 27.4687ZM208.445 38.5254C209.436 38.5454 210.296 37.7449 210.326 36.7543C210.356 35.7637 209.556 34.9032 208.575 34.8632C207.565 34.8232 206.684 35.6537 206.664 36.6643C206.644 37.6449 207.455 38.4954 208.445 38.5254ZM219.512 34.8532C218.521 34.8432 217.681 35.6637 217.661 36.6543C217.641 37.6449 218.461 38.4954 219.442 38.5154C220.452 38.5354 221.323 37.7049 221.323 36.6843C221.333 35.7037 220.512 34.8632 219.512 34.8532ZM210.326 45.8798C210.336 44.8892 209.516 44.0487 208.525 44.0287C207.535 44.0087 206.684 44.8292 206.664 45.8098C206.644 46.8204 207.485 47.6909 208.495 47.6909C209.476 47.6909 210.316 46.8704 210.326 45.8798ZM221.333 45.8398C221.323 44.8492 220.482 44.0287 219.492 44.0287C218.501 44.0387 217.671 44.8692 217.671 45.8598C217.671 46.8704 218.531 47.7209 219.542 47.6909C220.532 47.6709 221.343 46.8304 221.333 45.8398Z" fill="#B03F8F"/>
<path d="M245.167 2.08364C246.228 2.15368 247.158 2.59394 248.029 3.13427C250.891 4.92534 252.402 7.5269 252.502 10.9189C252.532 12.0296 252.492 13.1303 252.512 14.2409C252.522 14.6011 252.402 14.6912 252.061 14.6812C250.61 14.6612 249.16 14.6712 247.709 14.6712C231.189 14.6712 214.669 14.6712 198.149 14.6812C197.609 14.6812 197.429 14.5711 197.459 14.0008C197.549 12.3298 197.288 10.6288 197.699 8.97777C198.609 5.39563 200.871 3.11426 204.423 2.09364C204.543 2.05362 204.683 2.07363 204.813 2.07363L204.793 2.05362C204.793 2.58394 204.793 3.12426 204.803 3.65458C204.833 4.6852 205.623 5.48568 206.604 5.49568C207.615 5.50569 208.435 4.70521 208.465 3.65458C208.485 3.04421 208.475 2.43385 208.475 1.82348L208.455 1.84349C210.296 1.84349 212.137 1.84349 213.978 1.84349L213.958 1.82348C213.958 2.43385 213.958 3.04421 213.968 3.65458C213.998 4.6852 214.779 5.48568 215.77 5.49568C216.78 5.5157 217.601 4.70521 217.631 3.65458C217.651 3.04421 217.641 2.43385 217.641 1.82348L217.621 1.84349C219.462 1.84349 221.303 1.84349 223.144 1.84349L223.124 1.82348C223.124 2.43385 223.124 3.04421 223.134 3.65458C223.164 4.6852 223.944 5.48568 224.935 5.49568C225.946 5.5157 226.766 4.70521 226.796 3.65458C226.816 3.04421 226.806 2.43385 226.806 1.82348L226.786 1.84349C228.627 1.84349 230.468 1.84349 232.309 1.84349L232.289 1.82348C232.289 2.43385 232.289 3.04421 232.299 3.65458C232.329 4.6852 233.11 5.48568 234.101 5.49568C235.111 5.5157 235.932 4.70521 235.962 3.65458C235.982 3.04421 235.972 2.43385 235.972 1.82348L235.952 1.84349C237.793 1.84349 239.634 1.84349 241.475 1.84349L241.455 1.82348C241.455 2.43385 241.455 3.04421 241.465 3.65458C241.485 4.6852 242.275 5.48568 243.266 5.49568C244.277 5.5157 245.097 4.70521 245.127 3.65458C245.137 3.12426 245.137 2.58394 245.137 2.05362L245.167 2.08364Z" fill="#B03F8F"/>
<path d="M226.836 42.1376C226.856 35.0333 232.64 29.3199 239.754 29.3499C246.828 29.3799 252.542 35.1534 252.512 42.2376C252.492 49.3419 246.698 55.0653 239.594 55.0253C232.52 54.9953 226.816 49.2318 226.836 42.1376ZM241.525 44.0287C242.136 44.0287 242.746 44.0387 243.356 44.0287C244.387 43.9987 245.177 43.1882 245.177 42.1976C245.177 41.207 244.387 40.3965 243.356 40.3665C242.876 40.3565 242.406 40.3465 241.925 40.3665C241.605 40.3865 241.495 40.2864 241.505 39.9562C241.525 38.8856 241.525 37.815 241.505 36.7543C241.495 35.6837 240.695 34.8732 239.684 34.8632C238.663 34.8532 237.853 35.6637 237.843 36.7343C237.833 38.5454 237.833 40.3565 237.843 42.1776C237.853 43.2382 238.623 44.0087 239.694 44.0387C240.304 44.0387 240.915 44.0287 241.525 44.0287Z" fill="#B03F8F"/>
<path d="M204.833 2.08358C204.813 0.90287 205.524 0.0523593 206.574 0.00232931C207.615 -0.0477007 208.405 0.712756 208.495 1.84343L208.515 1.82342C208.225 1.82342 207.945 1.82342 207.655 1.83343C206.704 1.85344 205.754 1.75338 204.823 2.05356L204.833 2.08358Z" fill="#B03F8F"/>
<path d="M241.515 1.84341C241.595 0.722734 242.396 -0.0477286 243.436 0.00230146C244.487 0.0523315 245.187 0.892836 245.167 2.08355L245.187 2.06354C245.037 2.02351 244.897 1.97348 244.747 1.95347C243.666 1.76336 242.586 1.88343 241.495 1.8334L241.515 1.84341Z" fill="#B03F8F"/>
<path d="M213.998 1.8434C214.078 0.762754 214.809 0.0123034 215.799 0.00229745C216.82 -0.00770856 217.57 0.742742 217.65 1.8434L217.67 1.82339C216.44 1.82339 215.209 1.82339 213.988 1.82339L213.998 1.8434Z" fill="#B03F8F"/>
<path d="M223.174 1.8434C223.254 0.762754 223.985 0.0123034 224.975 0.00229745C225.996 -0.00770856 226.746 0.742742 226.826 1.8434L226.846 1.82339C225.616 1.82339 224.385 1.82339 223.164 1.82339L223.174 1.8434Z" fill="#B03F8F"/>
<path d="M232.35 1.8434C232.43 0.762754 233.16 0.0123034 234.151 0.00229745C235.171 -0.00770856 235.922 0.742742 236.002 1.8434L236.022 1.82339C234.791 1.82339 233.56 1.82339 232.34 1.82339L232.35 1.8434Z" fill="#B03F8F"/>
<path d="M170.102 27.5188H0" stroke="#EBAD1F" stroke-width="2" stroke-miterlimit="10"/>
<path d="M450 27.5188H279.898" stroke="#EBAD1F" stroke-width="2" stroke-miterlimit="10"/>
</svg>
